# xmcd
#
# Track frame offsets: 
#        150
#        9685
#        21752
#        33031
#        42346
#        53550
#        63890
#        72772
#        86579
#        123991
#        166840
#        191289
#        218079
#        268284
#
# Disc length: 4029 seconds
#
# Revision: 12
# Processed by: cddbd v1.5.2PL0 Copyright (c) Steve Scherf et al.
# Submitted via: ExactAudioCopyFreeDBPlugin 1.0
#
DISCID=b20fbb0e
DTITLE=Canned Heat - Experience
DYEAR=1996
DGENRE=Blues
TTITLE0=Big Road Blues
TTITLE1=Got My Mojo Working
TTITLE2=Spoonful
TTITLE3=Rollin' And Tumblin
TTITLE4=Can't Hold On
TTITLE5=Dimples
TTITLE6=Pretty Thing
TTITLE7=Louise
TTITLE8=Wish You Would
TTITLE9=When Things Go Wrong
TTITLE10=I'd Rather Be A Devil
TTITLE11=Dust My Broom
TTITLE12=Sweet Sixteen
TTITLE13=Bull Frog Blues
EXTD=YEAR: 1996
EXTT0=
EXTT1=
EXTT2=
EXTT3=
EXTT4=
EXTT5=
EXTT6=
EXTT7=
EXTT8=
EXTT9=
EXTT10=
EXTT11=
EXTT12=
EXTT13=
PLAYORDER=
